<svg xmlns="http://www.w3.org/2000/svg" viewBox="0 0 32 32">
  <defs>
    <linearGradient id="g" x1="0%" y1="0%" x2="100%" y2="100%">
      <stop offset="0%" stop-color="#94e2d5"/>
      <stop offset="50%" stop-color="#89dceb"/>
      <stop offset="100%" stop-color="#89b4fa"/>
    </linearGradient>
  </defs>
  <path d="M16 2 C16 2 12 8 12 14 C12 16.2 13.8 18 16 18 C18.2 18 20 16.2 20 14 C20 8 16 2 16 2Z" fill="url(#g)"/>
  <path d="M10 20 C10 20 8 22 8 24 C8 26.2 9.8 28 12 28 L20 28 C22.2 28 24 26.2 24 24 C24 22 22 20 22 20 L18 22 C18 22 19 23 19 24 C19 24.6 18.6 25 18 25 L14 25 C13.4 25 13 24.6 13 24 C13 23 14 22 14 22 Z" fill="url(#g)" opacity="0.7"/>
</svg>
